<mxfile host="app.diagrams.net" modified="2024-08-28T09:49:45.024Z" agent="Mozilla/5.0 (Windows NT 10.0; Win64; x64; rv:129.0) Gecko/20100101 Firefox/129.0" version="24.4.13" etag="AFYaWhNtte4XToohi2-w" type="github">
  <diagram name="Page-1" id="AVlufROQFh6z09YkKDd0">
    <mxGraphModel>
      <root>
        <mxCell id="0" />
        <mxCell id="1" parent="0" />
      </root>
    </mxGraphModel>
  </diagram>
</mxfile>
